<svg xmlns="http://www.w3.org/2000/svg" width="24" height="24" viewBox="0 0 24 24"><defs><style>.a{fill:#707070;}</style></defs><path class="a" d="M-2203,195a11.921,11.921,0,0,1-8.485-3.515A11.923,11.923,0,0,1-2215,183a11.921,11.921,0,0,1,3.514-8.485A11.922,11.922,0,0,1-2203,171a11.922,11.922,0,0,1,8.486,3.515A11.921,11.921,0,0,1-2191,183a11.922,11.922,0,0,1-3.515,8.486A11.922,11.922,0,0,1-2203,195Zm-5-13a1,1,0,0,0-1,1,1,1,0,0,0,1,1h4v4a1,1,0,0,0,1,1,1,1,0,0,0,1-1v-4h4a1,1,0,0,0,1-1,1,1,0,0,0-1-1h-4v-4a1,1,0,0,0-1-1,1,1,0,0,0-1,1v4Z" transform="translate(2215 -171)"/></svg>
